<svg xmlns="http://www.w3.org/2000/svg" xmlns:xlink="http://www.w3.org/1999/xlink" id="Layer_1" data-name="Layer 1" viewBox="0 0 1201.5 614.2"><defs><style>      .cls-1 {        fill: url(#linear-gradient);      }      .cls-2 {        fill: #ff1033;      }      .cls-3 {        fill: #ac0826;      }    </style><linearGradient id="linear-gradient" x1="176.58" y1="293.02" x2="275.95" y2="293.02" gradientUnits="userSpaceOnUse"><stop offset="0" stop-color="#ff1033"></stop><stop offset=".39" stop-color="#d80c2c"></stop><stop offset=".78" stop-color="#b80927"></stop><stop offset="1" stop-color="#ac0826"></stop></linearGradient></defs><g><path class="cls-3" d="M532,314.13h51.38c.17,6.84-.8,13.32-2.9,19.27-2.19,6.21-5.49,11.7-9.81,16.31-4.31,4.6-9.69,8.27-15.98,10.91-6.3,2.64-13.68,3.98-21.91,3.98-8.81,0-16.65-1.74-23.3-5.18-6.67-3.44-12.36-8.12-16.9-13.92-4.56-5.81-8.06-12.6-10.42-20.17-2.36-7.59-3.56-15.64-3.56-23.91s1.05-16.8,3.12-24.86c2.06-8.02,5.31-15.27,9.65-21.52,4.32-6.22,9.96-11.31,16.78-15.12,6.8-3.8,15.08-5.73,24.62-5.73,5.88,0,11.52.71,16.74,2.11,5.2,1.39,9.91,3.51,14,6.28,4.07,2.76,7.54,6.34,10.31,10.64,2.77,4.3,4.69,9.52,5.71,15.5l.14.83h23.41l-.18-1.16c-1.52-9.54-4.4-17.81-8.58-24.58-4.18-6.76-9.43-12.43-15.58-16.84-6.15-4.41-13.23-7.68-21.05-9.72-7.78-2.04-16.16-3.07-24.91-3.07-12.86,0-24.26,2.42-33.89,7.2-9.62,4.77-17.76,11.26-24.21,19.3-6.43,8.02-11.34,17.49-14.59,28.14-3.24,10.62-4.89,21.97-4.89,33.73,0,10.58,1.76,20.92,5.24,30.74,3.48,9.84,8.62,18.66,15.28,26.22,6.67,7.58,14.88,13.68,24.42,18.15,9.55,4.47,20.53,6.74,32.63,6.74,9.54,0,19.13-1.88,28.52-5.59h0c8.85-3.5,16.45-9.17,22.63-16.88l5.3,18.86h15.27v-86.67h-72.49v20.01Z"></path><rect class="cls-3" x="631.98" y="218" width="21.14" height="162.79"></rect><path class="cls-3" d="M774.93,277.68c-4.88-5.56-10.94-10.01-18.02-13.2-7.08-3.2-15.44-4.82-24.85-4.82s-17.58,1.62-24.73,4.82c-7.15,3.2-13.25,7.64-18.13,13.2-4.88,5.56-8.58,12.19-11.01,19.72-2.42,7.49-3.65,15.66-3.65,24.29s1.23,16.77,3.65,24.18c2.43,7.45,6.13,14.05,11.01,19.6,4.88,5.57,10.98,9.97,18.14,13.09,7.15,3.12,15.47,4.7,24.72,4.7s17.76-1.58,24.84-4.7c7.08-3.12,13.14-7.52,18.03-13.09,4.87-5.56,8.57-12.15,11.01-19.6,2.42-7.43,3.65-15.56,3.65-24.18s-1.23-16.79-3.65-24.29c-2.43-7.52-6.14-14.16-11.01-19.72ZM732.06,364.6c-4.8,0-9.4-.96-13.67-2.84-4.28-1.88-8.07-4.64-11.26-8.2-3.2-3.56-5.74-8.07-7.57-13.39h0c-1.83-5.34-2.76-11.56-2.76-18.48s.93-13.13,2.76-18.48c1.82-5.33,4.37-9.87,7.57-13.51,3.19-3.63,6.98-6.42,11.25-8.3,4.28-1.89,8.88-2.84,13.67-2.84s9.39.96,13.67,2.84c4.27,1.88,8.06,4.68,11.25,8.3,3.2,3.64,5.75,8.19,7.57,13.51,1.83,5.35,2.76,11.57,2.76,18.48s-.93,13.13-2.76,18.48c-1.83,5.33-4.37,9.83-7.57,13.39-3.19,3.56-6.98,6.31-11.26,8.2-4.28,1.89-8.88,2.84-13.67,2.84Z"></path><path class="cls-3" d="M909.51,278.39c-4.5-5.72-10.22-10.32-17.01-13.68-6.79-3.36-14.86-5.06-23.97-5.06-8.21,0-15.84,1.51-22.69,4.47-5.99,2.6-10.66,6.6-13.92,11.91v-58.05h-21.14v162.79h21.14v-13.89c1.89,2.64,4.1,4.92,6.62,6.82,3.13,2.37,6.5,4.27,10.04,5.65,3.49,1.37,7.08,2.37,10.67,2.98,3.58.61,6.85.91,9.74.91,8.96,0,16.95-1.62,23.73-4.82,6.79-3.21,12.52-7.66,17.01-13.22,4.49-5.56,7.88-12.15,10.09-19.6,2.19-7.42,3.31-15.39,3.31-23.7s-1.15-16.29-3.42-23.71c-2.28-7.44-5.71-14.1-10.19-19.8ZM865.83,278.55c5.96,0,11.22,1.17,15.64,3.49,4.42,2.32,8.09,5.48,10.91,9.38,2.84,3.93,4.99,8.49,6.38,13.53,1.4,5.07,2.1,10.33,2.1,15.61,0,5.6-.6,11.13-1.78,16.45-1.17,5.27-3.1,10.01-5.72,14.09-2.6,4.05-6.08,7.35-10.35,9.81-4.25,2.45-9.65,3.69-16.05,3.69s-11.94-1.21-16.42-3.6c-4.5-2.39-8.21-5.59-11.03-9.5-2.84-3.93-4.95-8.55-6.26-13.73-1.32-5.22-2-10.71-2-16.31,0-5.3.63-10.6,1.89-15.75,1.24-5.1,3.27-9.73,6.04-13.74,2.75-3.98,6.35-7.25,10.7-9.72,4.33-2.45,9.7-3.7,15.95-3.7Z"></path><path class="cls-3" d="M1041.93,364.38c-3.34,0-4.07-1.36-4.32-2.39-.5-2-.76-5.24-.76-9.64v-59.78c0-6.89-1.34-12.59-3.97-16.92-2.63-4.33-6.17-7.73-10.5-10.13-4.29-2.37-9.14-3.96-14.41-4.72-5.21-.75-10.53-1.14-15.79-1.14-6.65,0-12.98.69-18.81,2.05-5.87,1.37-11.17,3.66-15.76,6.79-4.62,3.16-8.36,7.33-11.12,12.39-2.76,5.07-4.32,11.35-4.62,18.68l-.04,1.04h21.13l.05-.95c.43-8.15,3.21-13.75,8.28-16.64,5.23-2.98,11.88-4.49,19.77-4.49,2.94,0,5.96.22,8.98.66,2.95.43,5.64,1.3,8,2.59,2.31,1.26,4.23,3.11,5.71,5.5,1.47,2.38,2.21,5.61,2.21,9.61,0,3.34-.92,5.78-2.82,7.47-1.98,1.76-4.72,3.13-8.15,4.06-3.53.96-7.69,1.71-12.35,2.22-4.74.53-9.8,1.33-15.04,2.37-4.96.9-9.88,2.05-14.62,3.4-4.82,1.38-9.16,3.43-12.92,6.11-3.78,2.7-6.88,6.27-9.2,10.59-2.32,4.33-3.5,9.95-3.5,16.69,0,5.98,1.06,11.17,3.14,15.42,2.09,4.26,4.95,7.75,8.52,10.38,3.54,2.62,7.79,4.57,12.62,5.8,4.79,1.22,9.91,1.83,15.22,1.83,8.19,0,15.93-1.43,23-4.24,6.37-2.53,12.1-6.56,17.07-11.99.37,5.27,1.92,9.22,4.62,11.78,3.11,2.95,7.32,4.44,12.51,4.44,6,0,10.8-1.03,14.24-3.07l.49-.29v-16.73l-1.26.34c-2.15.58-4.04.87-5.6.87ZM981.12,364.38c-2.93,0-5.73-.29-8.34-.87-2.57-.57-4.84-1.5-6.76-2.77-1.89-1.26-3.46-2.92-4.65-4.94-1.18-2-1.78-4.51-1.78-7.45,0-4.53,1.03-8.13,3.05-10.7,2.06-2.62,4.77-4.67,8.06-6.09,3.36-1.45,7.22-2.52,11.47-3.18,4.31-.67,8.66-1.27,12.92-1.79,4.28-.52,8.44-1.2,12.36-2.03,3.23-.68,5.99-1.7,8.25-3.04v17.63c0,2.54-.65,5.3-1.94,8.22-1.29,2.92-3.33,5.67-6.07,8.18-2.75,2.52-6.36,4.64-10.72,6.3-4.37,1.67-9.7,2.51-15.86,2.51Z"></path><rect class="cls-3" x="1065.7" y="218" width="21.14" height="162.79"></rect></g><g><path class="cls-2" d="M289.2,297.44v5.41c.01-.95.04-1.91.04-2.86,0-.85-.03-1.69-.04-2.54Z"></path><path class="cls-2" d="M253.55,299.99v67.93c-1.75,1.15-3.52,2.22-5.37,3.25-12.8,7.13-27.05,10.68-42.7,10.68h-64.32v-163.74h35.59v130.27h28c9.02,0,17.17-2.08,24.45-6.29,7.29-4.18,13.88-9.97,18.07-17.32,4.18-7.35,6.29-15.61,6.29-24.79Z"></path><path class="cls-1" d="M289.2,297.45v5.41c-.44,14.22-4.07,27.18-10.88,38.9-6.23,10.7-14.49,19.42-24.77,26.17v-67.93c0-9.17-2.1-17.45-6.29-24.81-4.19-7.34-10.78-13.11-18.06-17.32-7.28-4.19-15.43-6.29-24.45-6.29h-28v-33.45h28.73c15.65,0,29.89,3.56,42.7,10.67,12.83,7.13,22.86,16.94,30.14,29.44,6.86,11.81,10.49,24.89,10.88,39.22Z"></path><path class="cls-3" d="M430.72,330.96l-19.34,19.48-21.61-21.52v68.67c0,12.32-2.97,23.61-8.89,33.81-5.96,10.21-14.1,18.2-24.45,23.97-10.37,5.77-21.94,8.66-34.77,8.66s-24.41-2.89-34.75-8.66c-10.39-5.77-18.53-13.76-24.45-23.97-5.96-10.21-8.91-21.49-8.91-33.81v-29.67c10.29-6.74,18.55-15.45,24.77-26.17,6.81-11.71,10.45-24.67,10.88-38.9v94.26c0,6.17,1.15,11.74,3.97,16.72,2.85,5,6.77,8.91,11.75,11.76,5,2.84,10.55,4.26,16.73,4.26s11.75-1.43,16.72-4.26c5-2.85,8.91-6.77,11.76-11.76,2.84-4.98,4.25-10.55,4.25-16.72v-68.17l-21.61,21.5-19.34-19.48,48.74-48.51c5.49-5.46,14.35-5.46,19.82,0l48.72,48.51Z"></path></g></svg>